#usda 1.0
# Generated from scene.json. Geometry and material values retain the source
# status documented there. Cup/tray mass is a per-piece package estimate;
# friction, center of mass, and contact response are not measured.
(
    defaultPrim = "Cup"
    metersPerUnit = 1
    kilogramsPerUnit = 1
    upAxis = "Z"
)
def Xform "Cup" (
    prepend apiSchemas = ["PhysicsRigidBodyAPI", "PhysicsMassAPI"]
)
{
    custom string real2sim:geometryStatus = "unverified; see scene.json provenance"
    custom string real2sim:physicsStatus = "dynamic rigid body; estimated package-derived mass; friction/COM/contact unverified"
    bool physics:rigidBodyEnabled = true
    float physics:mass = 0.0317
    custom string real2sim:massSource = "0.19 kg six-pack net / 6; approximate single-piece mass"
    custom string real2sim:productArticle = "403.786.70"
    custom string real2sim:dimensionSource = "8 cm six-pack package diameter as outer cup diameter proxy; individual cup height unlisted"
    custom double real2sim:listedCapacityL = 0.23
    custom double real2sim:modeledInnerCapacityL = 0.230788727
    custom string real2sim:capacityModel = "inner frustum volume to rim; fill line unverified"

    def Scope "Looks"
    {
        def Material "CupMaterial"
        {
            token outputs:surface.connect = </Cup/Looks/CupMaterial/PreviewSurface.outputs:surface>
            def Shader "PreviewSurface"
            {
                uniform token info:id = "UsdPreviewSurface"
                color3f inputs:diffuseColor = (0.470588235, 0.784313725, 0.894117647)
                token outputs:surface
            }
        }
    }
    def Xform "Visual"
    {
        def Mesh "Surface" (
            prepend apiSchemas = ["MaterialBindingAPI"]
        )
        {
            point3f[] points = [
                (0.027, 0.0, 0.0),
                (0.026869988, 0.002646463, 0.0),
                (0.026481203, 0.005267439, 0.0),
                (0.025837389, 0.007837686, 0.0),
                (0.024944747, 0.010332453, 0.0),
                (0.023811874, 0.012727712, 0.0),
                (0.02244968, 0.015000396, 0.0),
                (0.020871282, 0.017128619, 0.0),
                (0.019091883, 0.019091883, 0.0),
                (0.017128619, 0.020871282, 0.0),
                (0.015000396, 0.02244968, 0.0),
                (0.012727712, 0.023811874, 0.0),
                (0.010332453, 0.024944747, 0.0),
                (0.007837686, 0.025837389, 0.0),
                (0.005267439, 0.026481203, 0.0),
                (0.002646463, 0.026869988, 0.0),
                (0.0, 0.027, 0.0),
                (-0.002646463, 0.026869988, 0.0),
                (-0.005267439, 0.026481203, 0.0),
                (-0.007837686, 0.025837389, 0.0),
                (-0.010332453, 0.024944747, 0.0),
                (-0.012727712, 0.023811874, 0.0),
                (-0.015000396, 0.02244968, 0.0),
                (-0.017128619, 0.020871282, 0.0),
                (-0.019091883, 0.019091883, 0.0),
                (-0.020871282, 0.017128619, 0.0),
                (-0.02244968, 0.015000396, 0.0),
                (-0.023811874, 0.012727712, 0.0),
                (-0.024944747, 0.010332453, 0.0),
                (-0.025837389, 0.007837686, 0.0),
                (-0.026481203, 0.005267439, 0.0),
                (-0.026869988, 0.002646463, 0.0),
                (-0.027, 0.0, 0.0),
                (-0.026869988, -0.002646463, 0.0),
                (-0.026481203, -0.005267439, 0.0),
                (-0.025837389, -0.007837686, 0.0),
                (-0.024944747, -0.010332453, 0.0),
                (-0.023811874, -0.012727712, 0.0),
                (-0.02244968, -0.015000396, 0.0),
                (-0.020871282, -0.017128619, 0.0),
                (-0.019091883, -0.019091883, 0.0),
                (-0.017128619, -0.020871282, 0.0),
                (-0.015000396, -0.02244968, 0.0),
                (-0.012727712, -0.023811874, 0.0),
                (-0.010332453, -0.024944747, 0.0),
                (-0.007837686, -0.025837389, 0.0),
                (-0.005267439, -0.026481203, 0.0),
                (-0.002646463, -0.026869988, 0.0),
                (0.0, -0.027, 0.0),
                (0.002646463, -0.026869988, 0.0),
                (0.005267439, -0.026481203, 0.0),
                (0.007837686, -0.025837389, 0.0),
                (0.010332453, -0.024944747, 0.0),
                (0.012727712, -0.023811874, 0.0),
                (0.015000396, -0.02244968, 0.0),
                (0.017128619, -0.020871282, 0.0),
                (0.019091883, -0.019091883, 0.0),
                (0.020871282, -0.017128619, 0.0),
                (0.02244968, -0.015000396, 0.0),
                (0.023811874, -0.012727712, 0.0),
                (0.024944747, -0.010332453, 0.0),
                (0.025837389, -0.007837686, 0.0),
                (0.026481203, -0.005267439, 0.0),
                (0.026869988, -0.002646463, 0.0),
                (0.04, 0.0, 0.075),
                (0.039807389, 0.003920686, 0.075),
                (0.039231411, 0.007803613, 0.075),
                (0.038277613, 0.011611387, 0.075),
                (0.036955181, 0.015307337, 0.075),
                (0.035276851, 0.018855869, 0.075),
                (0.033258784, 0.022222809, 0.075),
                (0.030920418, 0.025375731, 0.075),
                (0.028284271, 0.028284271, 0.075),
                (0.025375731, 0.030920418, 0.075),
                (0.022222809, 0.033258784, 0.075),
                (0.018855869, 0.035276851, 0.075),
                (0.015307337, 0.036955181, 0.075),
                (0.011611387, 0.038277613, 0.075),
                (0.007803613, 0.039231411, 0.075),
                (0.003920686, 0.039807389, 0.075),
                (0.0, 0.04, 0.075),
                (-0.003920686, 0.039807389, 0.075),
                (-0.007803613, 0.039231411, 0.075),
                (-0.011611387, 0.038277613, 0.075),
                (-0.015307337, 0.036955181, 0.075),
                (-0.018855869, 0.035276851, 0.075),
                (-0.022222809, 0.033258784, 0.075),
                (-0.025375731, 0.030920418, 0.075),
                (-0.028284271, 0.028284271, 0.075),
                (-0.030920418, 0.025375731, 0.075),
                (-0.033258784, 0.022222809, 0.075),
                (-0.035276851, 0.018855869, 0.075),
                (-0.036955181, 0.015307337, 0.075),
                (-0.038277613, 0.011611387, 0.075),
                (-0.039231411, 0.007803613, 0.075),
                (-0.039807389, 0.003920686, 0.075),
                (-0.04, 0.0, 0.075),
                (-0.039807389, -0.003920686, 0.075),
                (-0.039231411, -0.007803613, 0.075),
                (-0.038277613, -0.011611387, 0.075),
                (-0.036955181, -0.015307337, 0.075),
                (-0.035276851, -0.018855869, 0.075),
                (-0.033258784, -0.022222809, 0.075),
                (-0.030920418, -0.025375731, 0.075),
                (-0.028284271, -0.028284271, 0.075),
                (-0.025375731, -0.030920418, 0.075),
                (-0.022222809, -0.033258784, 0.075),
                (-0.018855869, -0.035276851, 0.075),
                (-0.015307337, -0.036955181, 0.075),
                (-0.011611387, -0.038277613, 0.075),
                (-0.007803613, -0.039231411, 0.075),
                (-0.003920686, -0.039807389, 0.075),
                (0.0, -0.04, 0.075),
                (0.003920686, -0.039807389, 0.075),
                (0.007803613, -0.039231411, 0.075),
                (0.011611387, -0.038277613, 0.075),
                (0.015307337, -0.036955181, 0.075),
                (0.018855869, -0.035276851, 0.075),
                (0.022222809, -0.033258784, 0.075),
                (0.025375731, -0.030920418, 0.075),
                (0.028284271, -0.028284271, 0.075),
                (0.030920418, -0.025375731, 0.075),
                (0.033258784, -0.022222809, 0.075),
                (0.035276851, -0.018855869, 0.075),
                (0.036955181, -0.015307337, 0.075),
                (0.038277613, -0.011611387, 0.075),
                (0.039231411, -0.007803613, 0.075),
                (0.039807389, -0.003920686, 0.075),
                (0.038, 0.0, 0.075),
                (0.03781702, 0.003724651, 0.075),
                (0.037269841, 0.007413432, 0.075),
                (0.036363733, 0.011030818, 0.075),
                (0.035107422, 0.01454197, 0.075),
                (0.033513008, 0.017913076, 0.075),
                (0.031595845, 0.021111669, 0.075),
                (0.029374397, 0.024106945, 0.075),
                (0.026870058, 0.026870058, 0.075),
                (0.024106945, 0.029374397, 0.075),
                (0.021111669, 0.031595845, 0.075),
                (0.017913076, 0.033513008, 0.075),
                (0.01454197, 0.035107422, 0.075),
                (0.011030818, 0.036363733, 0.075),
                (0.007413432, 0.037269841, 0.075),
                (0.003724651, 0.03781702, 0.075),
                (0.0, 0.038, 0.075),
                (-0.003724651, 0.03781702, 0.075),
                (-0.007413432, 0.037269841, 0.075),
                (-0.011030818, 0.036363733, 0.075),
                (-0.01454197, 0.035107422, 0.075),
                (-0.017913076, 0.033513008, 0.075),
                (-0.021111669, 0.031595845, 0.075),
                (-0.024106945, 0.029374397, 0.075),
                (-0.026870058, 0.026870058, 0.075),
                (-0.029374397, 0.024106945, 0.075),
                (-0.031595845, 0.021111669, 0.075),
                (-0.033513008, 0.017913076, 0.075),
                (-0.035107422, 0.01454197, 0.075),
                (-0.036363733, 0.011030818, 0.075),
                (-0.037269841, 0.007413432, 0.075),
                (-0.03781702, 0.003724651, 0.075),
                (-0.038, 0.0, 0.075),
                (-0.03781702, -0.003724651, 0.075),
                (-0.037269841, -0.007413432, 0.075),
                (-0.036363733, -0.011030818, 0.075),
                (-0.035107422, -0.01454197, 0.075),
                (-0.033513008, -0.017913076, 0.075),
                (-0.031595845, -0.021111669, 0.075),
                (-0.029374397, -0.024106945, 0.075),
                (-0.026870058, -0.026870058, 0.075),
                (-0.024106945, -0.029374397, 0.075),
                (-0.021111669, -0.031595845, 0.075),
                (-0.017913076, -0.033513008, 0.075),
                (-0.01454197, -0.035107422, 0.075),
                (-0.011030818, -0.036363733, 0.075),
                (-0.007413432, -0.037269841, 0.075),
                (-0.003724651, -0.03781702, 0.075),
                (0.0, -0.038, 0.075),
                (0.003724651, -0.03781702, 0.075),
                (0.007413432, -0.037269841, 0.075),
                (0.011030818, -0.036363733, 0.075),
                (0.01454197, -0.035107422, 0.075),
                (0.017913076, -0.033513008, 0.075),
                (0.021111669, -0.031595845, 0.075),
                (0.024106945, -0.029374397, 0.075),
                (0.026870058, -0.026870058, 0.075),
                (0.029374397, -0.024106945, 0.075),
                (0.031595845, -0.021111669, 0.075),
                (0.033513008, -0.017913076, 0.075),
                (0.035107422, -0.01454197, 0.075),
                (0.036363733, -0.011030818, 0.075),
                (0.037269841, -0.007413432, 0.075),
                (0.03781702, -0.003724651, 0.075),
                (0.025, 0.0, 0.002),
                (0.024879618, 0.002450429, 0.002),
                (0.024519632, 0.004877258, 0.002),
                (0.023923508, 0.007257117, 0.002),
                (0.023096988, 0.009567086, 0.002),
                (0.022048032, 0.011784918, 0.002),
                (0.02078674, 0.013889256, 0.002),
                (0.019325261, 0.015859832, 0.002),
                (0.01767767, 0.01767767, 0.002),
                (0.015859832, 0.019325261, 0.002),
                (0.013889256, 0.02078674, 0.002),
                (0.011784918, 0.022048032, 0.002),
                (0.009567086, 0.023096988, 0.002),
                (0.007257117, 0.023923508, 0.002),
                (0.004877258, 0.024519632, 0.002),
                (0.002450429, 0.024879618, 0.002),
                (0.0, 0.025, 0.002),
                (-0.002450429, 0.024879618, 0.002),
                (-0.004877258, 0.024519632, 0.002),
                (-0.007257117, 0.023923508, 0.002),
                (-0.009567086, 0.023096988, 0.002),
                (-0.011784918, 0.022048032, 0.002),
                (-0.013889256, 0.02078674, 0.002),
                (-0.015859832, 0.019325261, 0.002),
                (-0.01767767, 0.01767767, 0.002),
                (-0.019325261, 0.015859832, 0.002),
                (-0.02078674, 0.013889256, 0.002),
                (-0.022048032, 0.011784918, 0.002),
                (-0.023096988, 0.009567086, 0.002),
                (-0.023923508, 0.007257117, 0.002),
                (-0.024519632, 0.004877258, 0.002),
                (-0.024879618, 0.002450429, 0.002),
                (-0.025, 0.0, 0.002),
                (-0.024879618, -0.002450429, 0.002),
                (-0.024519632, -0.004877258, 0.002),
                (-0.023923508, -0.007257117, 0.002),
                (-0.023096988, -0.009567086, 0.002),
                (-0.022048032, -0.011784918, 0.002),
                (-0.02078674, -0.013889256, 0.002),
                (-0.019325261, -0.015859832, 0.002),
                (-0.01767767, -0.01767767, 0.002),
                (-0.015859832, -0.019325261, 0.002),
                (-0.013889256, -0.02078674, 0.002),
                (-0.011784918, -0.022048032, 0.002),
                (-0.009567086, -0.023096988, 0.002),
                (-0.007257117, -0.023923508, 0.002),
                (-0.004877258, -0.024519632, 0.002),
                (-0.002450429, -0.024879618, 0.002),
                (0.0, -0.025, 0.002),
                (0.002450429, -0.024879618, 0.002),
                (0.004877258, -0.024519632, 0.002),
                (0.007257117, -0.023923508, 0.002),
                (0.009567086, -0.023096988, 0.002),
                (0.011784918, -0.022048032, 0.002),
                (0.013889256, -0.02078674, 0.002),
                (0.015859832, -0.019325261, 0.002),
                (0.01767767, -0.01767767, 0.002),
                (0.019325261, -0.015859832, 0.002),
                (0.02078674, -0.013889256, 0.002),
                (0.022048032, -0.011784918, 0.002),
                (0.023096988, -0.009567086, 0.002),
                (0.023923508, -0.007257117, 0.002),
                (0.024519632, -0.004877258, 0.002),
                (0.024879618, -0.002450429, 0.002),
                (0.0, 0.0, 0.0),
                (0.0, 0.0, 0.002)
            ]
            int[] faceVertexCounts = [3, 4, 4, 4, 3, 3, 4, 4, 4, 3, 3, 4, 4, 4, 3, 3, 4, 4, 4, 3, 3, 4, 4, 4, 3, 3, 4, 4, 4, 3, 3, 4, 4, 4, 3, 3, 4, 4, 4, 3, 3, 4, 4, 4, 3, 3, 4, 4, 4, 3, 3, 4, 4, 4, 3, 3, 4, 4, 4, 3, 3, 4, 4, 4, 3, 3, 4, 4, 4, 3, 3, 4, 4, 4, 3, 3, 4, 4, 4, 3, 3, 4, 4, 4, 3, 3, 4, 4, 4, 3, 3, 4, 4, 4, 3, 3, 4, 4, 4, 3, 3, 4, 4, 4, 3, 3, 4, 4, 4, 3, 3, 4, 4, 4, 3, 3, 4, 4, 4, 3, 3, 4, 4, 4, 3, 3, 4, 4, 4, 3, 3, 4, 4, 4, 3, 3, 4, 4, 4, 3, 3, 4, 4, 4, 3, 3, 4, 4, 4, 3, 3, 4, 4, 4, 3, 3, 4, 4, 4, 3, 3, 4, 4, 4, 3, 3, 4, 4, 4, 3, 3, 4, 4, 4, 3, 3, 4, 4, 4, 3, 3, 4, 4, 4, 3, 3, 4, 4, 4, 3, 3, 4, 4, 4, 3, 3, 4, 4, 4, 3, 3, 4, 4, 4, 3, 3, 4, 4, 4, 3, 3, 4, 4, 4, 3, 3, 4, 4, 4, 3, 3, 4, 4, 4, 3, 3, 4, 4, 4, 3, 3, 4, 4, 4, 3, 3, 4, 4, 4, 3, 3, 4, 4, 4, 3, 3, 4, 4, 4, 3, 3, 4, 4, 4, 3, 3, 4, 4, 4, 3, 3, 4, 4, 4, 3, 3, 4, 4, 4, 3, 3, 4, 4, 4, 3, 3, 4, 4, 4, 3, 3, 4, 4, 4, 3, 3, 4, 4, 4, 3, 3, 4, 4, 4, 3, 3, 4, 4, 4, 3, 3, 4, 4, 4, 3, 3, 4, 4, 4, 3, 3, 4, 4, 4, 3, 3, 4, 4, 4, 3]
            int[] faceVertexIndices = [256, 1, 0, 0, 1, 65, 64, 64, 65, 129, 128, 128, 129, 193, 192, 257, 192, 193, 256, 2, 1, 1, 2, 66, 65, 65, 66, 130, 129, 129, 130, 194, 193, 257, 193, 194, 256, 3, 2, 2, 3, 67, 66, 66, 67, 131, 130, 130, 131, 195, 194, 257, 194, 195, 256, 4, 3, 3, 4, 68, 67, 67, 68, 132, 131, 131, 132, 196, 195, 257, 195, 196, 256, 5, 4, 4, 5, 69, 68, 68, 69, 133, 132, 132, 133, 197, 196, 257, 196, 197, 256, 6, 5, 5, 6, 70, 69, 69, 70, 134, 133, 133, 134, 198, 197, 257, 197, 198, 256, 7, 6, 6, 7, 71, 70, 70, 71, 135, 134, 134, 135, 199, 198, 257, 198, 199, 256, 8, 7, 7, 8, 72, 71, 71, 72, 136, 135, 135, 136, 200, 199, 257, 199, 200, 256, 9, 8, 8, 9, 73, 72, 72, 73, 137, 136, 136, 137, 201, 200, 257, 200, 201, 256, 10, 9, 9, 10, 74, 73, 73, 74, 138, 137, 137, 138, 202, 201, 257, 201, 202, 256, 11, 10, 10, 11, 75, 74, 74, 75, 139, 138, 138, 139, 203, 202, 257, 202, 203, 256, 12, 11, 11, 12, 76, 75, 75, 76, 140, 139, 139, 140, 204, 203, 257, 203, 204, 256, 13, 12, 12, 13, 77, 76, 76, 77, 141, 140, 140, 141, 205, 204, 257, 204, 205, 256, 14, 13, 13, 14, 78, 77, 77, 78, 142, 141, 141, 142, 206, 205, 257, 205, 206, 256, 15, 14, 14, 15, 79, 78, 78, 79, 143, 142, 142, 143, 207, 206, 257, 206, 207, 256, 16, 15, 15, 16, 80, 79, 79, 80, 144, 143, 143, 144, 208, 207, 257, 207, 208, 256, 17, 16, 16, 17, 81, 80, 80, 81, 145, 144, 144, 145, 209, 208, 257, 208, 209, 256, 18, 17, 17, 18, 82, 81, 81, 82, 146, 145, 145, 146, 210, 209, 257, 209, 210, 256, 19, 18, 18, 19, 83, 82, 82, 83, 147, 146, 146, 147, 211, 210, 257, 210, 211, 256, 20, 19, 19, 20, 84, 83, 83, 84, 148, 147, 147, 148, 212, 211, 257, 211, 212, 256, 21, 20, 20, 21, 85, 84, 84, 85, 149, 148, 148, 149, 213, 212, 257, 212, 213, 256, 22, 21, 21, 22, 86, 85, 85, 86, 150, 149, 149, 150, 214, 213, 257, 213, 214, 256, 23, 22, 22, 23, 87, 86, 86, 87, 151, 150, 150, 151, 215, 214, 257, 214, 215, 256, 24, 23, 23, 24, 88, 87, 87, 88, 152, 151, 151, 152, 216, 215, 257, 215, 216, 256, 25, 24, 24, 25, 89, 88, 88, 89, 153, 152, 152, 153, 217, 216, 257, 216, 217, 256, 26, 25, 25, 26, 90, 89, 89, 90, 154, 153, 153, 154, 218, 217, 257, 217, 218, 256, 27, 26, 26, 27, 91, 90, 90, 91, 155, 154, 154, 155, 219, 218, 257, 218, 219, 256, 28, 27, 27, 28, 92, 91, 91, 92, 156, 155, 155, 156, 220, 219, 257, 219, 220, 256, 29, 28, 28, 29, 93, 92, 92, 93, 157, 156, 156, 157, 221, 220, 257, 220, 221, 256, 30, 29, 29, 30, 94, 93, 93, 94, 158, 157, 157, 158, 222, 221, 257, 221, 222, 256, 31, 30, 30, 31, 95, 94, 94, 95, 159, 158, 158, 159, 223, 222, 257, 222, 223, 256, 32, 31, 31, 32, 96, 95, 95, 96, 160, 159, 159, 160, 224, 223, 257, 223, 224, 256, 33, 32, 32, 33, 97, 96, 96, 97, 161, 160, 160, 161, 225, 224, 257, 224, 225, 256, 34, 33, 33, 34, 98, 97, 97, 98, 162, 161, 161, 162, 226, 225, 257, 225, 226, 256, 35, 34, 34, 35, 99, 98, 98, 99, 163, 162, 162, 163, 227, 226, 257, 226, 227, 256, 36, 35, 35, 36, 100, 99, 99, 100, 164, 163, 163, 164, 228, 227, 257, 227, 228, 256, 37, 36, 36, 37, 101, 100, 100, 101, 165, 164, 164, 165, 229, 228, 257, 228, 229, 256, 38, 37, 37, 38, 102, 101, 101, 102, 166, 165, 165, 166, 230, 229, 257, 229, 230, 256, 39, 38, 38, 39, 103, 102, 102, 103, 167, 166, 166, 167, 231, 230, 257, 230, 231, 256, 40, 39, 39, 40, 104, 103, 103, 104, 168, 167, 167, 168, 232, 231, 257, 231, 232, 256, 41, 40, 40, 41, 105, 104, 104, 105, 169, 168, 168, 169, 233, 232, 257, 232, 233, 256, 42, 41, 41, 42, 106, 105, 105, 106, 170, 169, 169, 170, 234, 233, 257, 233, 234, 256, 43, 42, 42, 43, 107, 106, 106, 107, 171, 170, 170, 171, 235, 234, 257, 234, 235, 256, 44, 43, 43, 44, 108, 107, 107, 108, 172, 171, 171, 172, 236, 235, 257, 235, 236, 256, 45, 44, 44, 45, 109, 108, 108, 109, 173, 172, 172, 173, 237, 236, 257, 236, 237, 256, 46, 45, 45, 46, 110, 109, 109, 110, 174, 173, 173, 174, 238, 237, 257, 237, 238, 256, 47, 46, 46, 47, 111, 110, 110, 111, 175, 174, 174, 175, 239, 238, 257, 238, 239, 256, 48, 47, 47, 48, 112, 111, 111, 112, 176, 175, 175, 176, 240, 239, 257, 239, 240, 256, 49, 48, 48, 49, 113, 112, 112, 113, 177, 176, 176, 177, 241, 240, 257, 240, 241, 256, 50, 49, 49, 50, 114, 113, 113, 114, 178, 177, 177, 178, 242, 241, 257, 241, 242, 256, 51, 50, 50, 51, 115, 114, 114, 115, 179, 178, 178, 179, 243, 242, 257, 242, 243, 256, 52, 51, 51, 52, 116, 115, 115, 116, 180, 179, 179, 180, 244, 243, 257, 243, 244, 256, 53, 52, 52, 53, 117, 116, 116, 117, 181, 180, 180, 181, 245, 244, 257, 244, 245, 256, 54, 53, 53, 54, 118, 117, 117, 118, 182, 181, 181, 182, 246, 245, 257, 245, 246, 256, 55, 54, 54, 55, 119, 118, 118, 119, 183, 182, 182, 183, 247, 246, 257, 246, 247, 256, 56, 55, 55, 56, 120, 119, 119, 120, 184, 183, 183, 184, 248, 247, 257, 247, 248, 256, 57, 56, 56, 57, 121, 120, 120, 121, 185, 184, 184, 185, 249, 248, 257, 248, 249, 256, 58, 57, 57, 58, 122, 121, 121, 122, 186, 185, 185, 186, 250, 249, 257, 249, 250, 256, 59, 58, 58, 59, 123, 122, 122, 123, 187, 186, 186, 187, 251, 250, 257, 250, 251, 256, 60, 59, 59, 60, 124, 123, 123, 124, 188, 187, 187, 188, 252, 251, 257, 251, 252, 256, 61, 60, 60, 61, 125, 124, 124, 125, 189, 188, 188, 189, 253, 252, 257, 252, 253, 256, 62, 61, 61, 62, 126, 125, 125, 126, 190, 189, 189, 190, 254, 253, 257, 253, 254, 256, 63, 62, 62, 63, 127, 126, 126, 127, 191, 190, 190, 191, 255, 254, 257, 254, 255, 256, 0, 63, 63, 0, 64, 127, 127, 64, 128, 191, 191, 128, 192, 255, 257, 255, 192]
            float3[] extent = [(-0.04, -0.04, 0.0), (0.04, 0.04, 0.075)]
            uniform token subdivisionScheme = "none"
            bool doubleSided = true
            rel material:binding = </Cup/Looks/CupMaterial>
        }
    }
    def Xform "Collision"
    {
        def Cylinder "Base" (
            prepend apiSchemas = ["PhysicsCollisionAPI"]
        )
        {
            token visibility = "invisible"
            uniform token purpose = "guide"
            bool physics:collisionEnabled = true
            double radius = 0.027
            double height = 0.002
            uniform token axis = "Z"
            double3 xformOp:translate = (0.0, 0.0, 0.001)
            uniform token[] xformOpOrder = ["xformOp:translate"]
        }
        def Cube "Wall_00" (
            prepend apiSchemas = ["PhysicsCollisionAPI"]
        )
        {
            token visibility = "invisible"
            uniform token purpose = "guide"
            bool physics:collisionEnabled = true
            double3 xformOp:translate = (0.0325, 0.0, 0.0375)
            float3 xformOp:scale = (0.00108, 0.00439823, 0.038059164)
            float xformOp:rotateY = 9.833563964
            uniform token[] xformOpOrder = ["xformOp:translate", "xformOp:rotateY", "xformOp:scale"]
        }
        def Cube "Wall_01" (
            prepend apiSchemas = ["PhysicsCollisionAPI"]
        )
        {
            token visibility = "invisible"
            uniform token purpose = "guide"
            bool physics:collisionEnabled = true
            double3 xformOp:translate = (0.031875522, 0.006340435, 0.0375)
            float3 xformOp:scale = (0.00108, 0.00439823, 0.038059164)
            float xformOp:rotateZ = 11.25
            float xformOp:rotateY = 9.833563964
            uniform token[] xformOpOrder = ["xformOp:translate", "xformOp:rotateZ", "xformOp:rotateY", "xformOp:scale"]
        }
        def Cube "Wall_02" (
            prepend apiSchemas = ["PhysicsCollisionAPI"]
        )
        {
            token visibility = "invisible"
            uniform token purpose = "guide"
            bool physics:collisionEnabled = true
            double3 xformOp:translate = (0.030026085, 0.012437212, 0.0375)
            float3 xformOp:scale = (0.00108, 0.00439823, 0.038059164)
            float xformOp:rotateZ = 22.5
            float xformOp:rotateY = 9.833563964
            uniform token[] xformOpOrder = ["xformOp:translate", "xformOp:rotateZ", "xformOp:rotateY", "xformOp:scale"]
        }
        def Cube "Wall_03" (
            prepend apiSchemas = ["PhysicsCollisionAPI"]
        )
        {
            token visibility = "invisible"
            uniform token purpose = "guide"
            bool physics:collisionEnabled = true
            double3 xformOp:translate = (0.027022762, 0.018056033, 0.0375)
            float3 xformOp:scale = (0.00108, 0.00439823, 0.038059164)
            float xformOp:rotateZ = 33.75
            float xformOp:rotateY = 9.833563964
            uniform token[] xformOpOrder = ["xformOp:translate", "xformOp:rotateZ", "xformOp:rotateY", "xformOp:scale"]
        }
        def Cube "Wall_04" (
            prepend apiSchemas = ["PhysicsCollisionAPI"]
        )
        {
            token visibility = "invisible"
            uniform token purpose = "guide"
            bool physics:collisionEnabled = true
            double3 xformOp:translate = (0.02298097, 0.02298097, 0.0375)
            float3 xformOp:scale = (0.00108, 0.00439823, 0.038059164)
            float xformOp:rotateZ = 45.0
            float xformOp:rotateY = 9.833563964
            uniform token[] xformOpOrder = ["xformOp:translate", "xformOp:rotateZ", "xformOp:rotateY", "xformOp:scale"]
        }
        def Cube "Wall_05" (
            prepend apiSchemas = ["PhysicsCollisionAPI"]
        )
        {
            token visibility = "invisible"
            uniform token purpose = "guide"
            bool physics:collisionEnabled = true
            double3 xformOp:translate = (0.018056033, 0.027022762, 0.0375)
            float3 xformOp:scale = (0.00108, 0.00439823, 0.038059164)
            float xformOp:rotateZ = 56.25
            float xformOp:rotateY = 9.833563964
            uniform token[] xformOpOrder = ["xformOp:translate", "xformOp:rotateZ", "xformOp:rotateY", "xformOp:scale"]
        }
        def Cube "Wall_06" (
            prepend apiSchemas = ["PhysicsCollisionAPI"]
        )
        {
            token visibility = "invisible"
            uniform token purpose = "guide"
            bool physics:collisionEnabled = true
            double3 xformOp:translate = (0.012437212, 0.030026085, 0.0375)
            float3 xformOp:scale = (0.00108, 0.00439823, 0.038059164)
            float xformOp:rotateZ = 67.5
            float xformOp:rotateY = 9.833563964
            uniform token[] xformOpOrder = ["xformOp:translate", "xformOp:rotateZ", "xformOp:rotateY", "xformOp:scale"]
        }
        def Cube "Wall_07" (
            prepend apiSchemas = ["PhysicsCollisionAPI"]
        )
        {
            token visibility = "invisible"
            uniform token purpose = "guide"
            bool physics:collisionEnabled = true
            double3 xformOp:translate = (0.006340435, 0.031875522, 0.0375)
            float3 xformOp:scale = (0.00108, 0.00439823, 0.038059164)
            float xformOp:rotateZ = 78.75
            float xformOp:rotateY = 9.833563964
            uniform token[] xformOpOrder = ["xformOp:translate", "xformOp:rotateZ", "xformOp:rotateY", "xformOp:scale"]
        }
        def Cube "Wall_08" (
            prepend apiSchemas = ["PhysicsCollisionAPI"]
        )
        {
            token visibility = "invisible"
            uniform token purpose = "guide"
            bool physics:collisionEnabled = true
            double3 xformOp:translate = (0.0, 0.0325, 0.0375)
            float3 xformOp:scale = (0.00108, 0.00439823, 0.038059164)
            float xformOp:rotateZ = 90.0
            float xformOp:rotateY = 9.833563964
            uniform token[] xformOpOrder = ["xformOp:translate", "xformOp:rotateZ", "xformOp:rotateY", "xformOp:scale"]
        }
        def Cube "Wall_09" (
            prepend apiSchemas = ["PhysicsCollisionAPI"]
        )
        {
            token visibility = "invisible"
            uniform token purpose = "guide"
            bool physics:collisionEnabled = true
            double3 xformOp:translate = (-0.006340435, 0.031875522, 0.0375)
            float3 xformOp:scale = (0.00108, 0.00439823, 0.038059164)
            float xformOp:rotateZ = 101.25
            float xformOp:rotateY = 9.833563964
            uniform token[] xformOpOrder = ["xformOp:translate", "xformOp:rotateZ", "xformOp:rotateY", "xformOp:scale"]
        }
        def Cube "Wall_10" (
            prepend apiSchemas = ["PhysicsCollisionAPI"]
        )
        {
            token visibility = "invisible"
            uniform token purpose = "guide"
            bool physics:collisionEnabled = true
            double3 xformOp:translate = (-0.012437212, 0.030026085, 0.0375)
            float3 xformOp:scale = (0.00108, 0.00439823, 0.038059164)
            float xformOp:rotateZ = 112.5
            float xformOp:rotateY = 9.833563964
            uniform token[] xformOpOrder = ["xformOp:translate", "xformOp:rotateZ", "xformOp:rotateY", "xformOp:scale"]
        }
        def Cube "Wall_11" (
            prepend apiSchemas = ["PhysicsCollisionAPI"]
        )
        {
            token visibility = "invisible"
            uniform token purpose = "guide"
            bool physics:collisionEnabled = true
            double3 xformOp:translate = (-0.018056033, 0.027022762, 0.0375)
            float3 xformOp:scale = (0.00108, 0.00439823, 0.038059164)
            float xformOp:rotateZ = 123.75
            float xformOp:rotateY = 9.833563964
            uniform token[] xformOpOrder = ["xformOp:translate", "xformOp:rotateZ", "xformOp:rotateY", "xformOp:scale"]
        }
        def Cube "Wall_12" (
            prepend apiSchemas = ["PhysicsCollisionAPI"]
        )
        {
            token visibility = "invisible"
            uniform token purpose = "guide"
            bool physics:collisionEnabled = true
            double3 xformOp:translate = (-0.02298097, 0.02298097, 0.0375)
            float3 xformOp:scale = (0.00108, 0.00439823, 0.038059164)
            float xformOp:rotateZ = 135.0
            float xformOp:rotateY = 9.833563964
            uniform token[] xformOpOrder = ["xformOp:translate", "xformOp:rotateZ", "xformOp:rotateY", "xformOp:scale"]
        }
        def Cube "Wall_13" (
            prepend apiSchemas = ["PhysicsCollisionAPI"]
        )
        {
            token visibility = "invisible"
            uniform token purpose = "guide"
            bool physics:collisionEnabled = true
            double3 xformOp:translate = (-0.027022762, 0.018056033, 0.0375)
            float3 xformOp:scale = (0.00108, 0.00439823, 0.038059164)
            float xformOp:rotateZ = 146.25
            float xformOp:rotateY = 9.833563964
            uniform token[] xformOpOrder = ["xformOp:translate", "xformOp:rotateZ", "xformOp:rotateY", "xformOp:scale"]
        }
        def Cube "Wall_14" (
            prepend apiSchemas = ["PhysicsCollisionAPI"]
        )
        {
            token visibility = "invisible"
            uniform token purpose = "guide"
            bool physics:collisionEnabled = true
            double3 xformOp:translate = (-0.030026085, 0.012437212, 0.0375)
            float3 xformOp:scale = (0.00108, 0.00439823, 0.038059164)
            float xformOp:rotateZ = 157.5
            float xformOp:rotateY = 9.833563964
            uniform token[] xformOpOrder = ["xformOp:translate", "xformOp:rotateZ", "xformOp:rotateY", "xformOp:scale"]
        }
        def Cube "Wall_15" (
            prepend apiSchemas = ["PhysicsCollisionAPI"]
        )
        {
            token visibility = "invisible"
            uniform token purpose = "guide"
            bool physics:collisionEnabled = true
            double3 xformOp:translate = (-0.031875522, 0.006340435, 0.0375)
            float3 xformOp:scale = (0.00108, 0.00439823, 0.038059164)
            float xformOp:rotateZ = 168.75
            float xformOp:rotateY = 9.833563964
            uniform token[] xformOpOrder = ["xformOp:translate", "xformOp:rotateZ", "xformOp:rotateY", "xformOp:scale"]
        }
        def Cube "Wall_16" (
            prepend apiSchemas = ["PhysicsCollisionAPI"]
        )
        {
            token visibility = "invisible"
            uniform token purpose = "guide"
            bool physics:collisionEnabled = true
            double3 xformOp:translate = (-0.0325, 0.0, 0.0375)
            float3 xformOp:scale = (0.00108, 0.00439823, 0.038059164)
            float xformOp:rotateZ = 180.0
            float xformOp:rotateY = 9.833563964
            uniform token[] xformOpOrder = ["xformOp:translate", "xformOp:rotateZ", "xformOp:rotateY", "xformOp:scale"]
        }
        def Cube "Wall_17" (
            prepend apiSchemas = ["PhysicsCollisionAPI"]
        )
        {
            token visibility = "invisible"
            uniform token purpose = "guide"
            bool physics:collisionEnabled = true
            double3 xformOp:translate = (-0.031875522, -0.006340435, 0.0375)
            float3 xformOp:scale = (0.00108, 0.00439823, 0.038059164)
            float xformOp:rotateZ = 191.25
            float xformOp:rotateY = 9.833563964
            uniform token[] xformOpOrder = ["xformOp:translate", "xformOp:rotateZ", "xformOp:rotateY", "xformOp:scale"]
        }
        def Cube "Wall_18" (
            prepend apiSchemas = ["PhysicsCollisionAPI"]
        )
        {
            token visibility = "invisible"
            uniform token purpose = "guide"
            bool physics:collisionEnabled = true
            double3 xformOp:translate = (-0.030026085, -0.012437212, 0.0375)
            float3 xformOp:scale = (0.00108, 0.00439823, 0.038059164)
            float xformOp:rotateZ = 202.5
            float xformOp:rotateY = 9.833563964
            uniform token[] xformOpOrder = ["xformOp:translate", "xformOp:rotateZ", "xformOp:rotateY", "xformOp:scale"]
        }
        def Cube "Wall_19" (
            prepend apiSchemas = ["PhysicsCollisionAPI"]
        )
        {
            token visibility = "invisible"
            uniform token purpose = "guide"
            bool physics:collisionEnabled = true
            double3 xformOp:translate = (-0.027022762, -0.018056033, 0.0375)
            float3 xformOp:scale = (0.00108, 0.00439823, 0.038059164)
            float xformOp:rotateZ = 213.75
            float xformOp:rotateY = 9.833563964
            uniform token[] xformOpOrder = ["xformOp:translate", "xformOp:rotateZ", "xformOp:rotateY", "xformOp:scale"]
        }
        def Cube "Wall_20" (
            prepend apiSchemas = ["PhysicsCollisionAPI"]
        )
        {
            token visibility = "invisible"
            uniform token purpose = "guide"
            bool physics:collisionEnabled = true
            double3 xformOp:translate = (-0.02298097, -0.02298097, 0.0375)
            float3 xformOp:scale = (0.00108, 0.00439823, 0.038059164)
            float xformOp:rotateZ = 225.0
            float xformOp:rotateY = 9.833563964
            uniform token[] xformOpOrder = ["xformOp:translate", "xformOp:rotateZ", "xformOp:rotateY", "xformOp:scale"]
        }
        def Cube "Wall_21" (
            prepend apiSchemas = ["PhysicsCollisionAPI"]
        )
        {
            token visibility = "invisible"
            uniform token purpose = "guide"
            bool physics:collisionEnabled = true
            double3 xformOp:translate = (-0.018056033, -0.027022762, 0.0375)
            float3 xformOp:scale = (0.00108, 0.00439823, 0.038059164)
            float xformOp:rotateZ = 236.25
            float xformOp:rotateY = 9.833563964
            uniform token[] xformOpOrder = ["xformOp:translate", "xformOp:rotateZ", "xformOp:rotateY", "xformOp:scale"]
        }
        def Cube "Wall_22" (
            prepend apiSchemas = ["PhysicsCollisionAPI"]
        )
        {
            token visibility = "invisible"
            uniform token purpose = "guide"
            bool physics:collisionEnabled = true
            double3 xformOp:translate = (-0.012437212, -0.030026085, 0.0375)
            float3 xformOp:scale = (0.00108, 0.00439823, 0.038059164)
            float xformOp:rotateZ = 247.5
            float xformOp:rotateY = 9.833563964
            uniform token[] xformOpOrder = ["xformOp:translate", "xformOp:rotateZ", "xformOp:rotateY", "xformOp:scale"]
        }
        def Cube "Wall_23" (
            prepend apiSchemas = ["PhysicsCollisionAPI"]
        )
        {
            token visibility = "invisible"
            uniform token purpose = "guide"
            bool physics:collisionEnabled = true
            double3 xformOp:translate = (-0.006340435, -0.031875522, 0.0375)
            float3 xformOp:scale = (0.00108, 0.00439823, 0.038059164)
            float xformOp:rotateZ = 258.75
            float xformOp:rotateY = 9.833563964
            uniform token[] xformOpOrder = ["xformOp:translate", "xformOp:rotateZ", "xformOp:rotateY", "xformOp:scale"]
        }
        def Cube "Wall_24" (
            prepend apiSchemas = ["PhysicsCollisionAPI"]
        )
        {
            token visibility = "invisible"
            uniform token purpose = "guide"
            bool physics:collisionEnabled = true
            double3 xformOp:translate = (0.0, -0.0325, 0.0375)
            float3 xformOp:scale = (0.00108, 0.00439823, 0.038059164)
            float xformOp:rotateZ = 270.0
            float xformOp:rotateY = 9.833563964
            uniform token[] xformOpOrder = ["xformOp:translate", "xformOp:rotateZ", "xformOp:rotateY", "xformOp:scale"]
        }
        def Cube "Wall_25" (
            prepend apiSchemas = ["PhysicsCollisionAPI"]
        )
        {
            token visibility = "invisible"
            uniform token purpose = "guide"
            bool physics:collisionEnabled = true
            double3 xformOp:translate = (0.006340435, -0.031875522, 0.0375)
            float3 xformOp:scale = (0.00108, 0.00439823, 0.038059164)
            float xformOp:rotateZ = 281.25
            float xformOp:rotateY = 9.833563964
            uniform token[] xformOpOrder = ["xformOp:translate", "xformOp:rotateZ", "xformOp:rotateY", "xformOp:scale"]
        }
        def Cube "Wall_26" (
            prepend apiSchemas = ["PhysicsCollisionAPI"]
        )
        {
            token visibility = "invisible"
            uniform token purpose = "guide"
            bool physics:collisionEnabled = true
            double3 xformOp:translate = (0.012437212, -0.030026085, 0.0375)
            float3 xformOp:scale = (0.00108, 0.00439823, 0.038059164)
            float xformOp:rotateZ = 292.5
            float xformOp:rotateY = 9.833563964
            uniform token[] xformOpOrder = ["xformOp:translate", "xformOp:rotateZ", "xformOp:rotateY", "xformOp:scale"]
        }
        def Cube "Wall_27" (
            prepend apiSchemas = ["PhysicsCollisionAPI"]
        )
        {
            token visibility = "invisible"
            uniform token purpose = "guide"
            bool physics:collisionEnabled = true
            double3 xformOp:translate = (0.018056033, -0.027022762, 0.0375)
            float3 xformOp:scale = (0.00108, 0.00439823, 0.038059164)
            float xformOp:rotateZ = 303.75
            float xformOp:rotateY = 9.833563964
            uniform token[] xformOpOrder = ["xformOp:translate", "xformOp:rotateZ", "xformOp:rotateY", "xformOp:scale"]
        }
        def Cube "Wall_28" (
            prepend apiSchemas = ["PhysicsCollisionAPI"]
        )
        {
            token visibility = "invisible"
            uniform token purpose = "guide"
            bool physics:collisionEnabled = true
            double3 xformOp:translate = (0.02298097, -0.02298097, 0.0375)
            float3 xformOp:scale = (0.00108, 0.00439823, 0.038059164)
            float xformOp:rotateZ = 315.0
            float xformOp:rotateY = 9.833563964
            uniform token[] xformOpOrder = ["xformOp:translate", "xformOp:rotateZ", "xformOp:rotateY", "xformOp:scale"]
        }
        def Cube "Wall_29" (
            prepend apiSchemas = ["PhysicsCollisionAPI"]
        )
        {
            token visibility = "invisible"
            uniform token purpose = "guide"
            bool physics:collisionEnabled = true
            double3 xformOp:translate = (0.027022762, -0.018056033, 0.0375)
            float3 xformOp:scale = (0.00108, 0.00439823, 0.038059164)
            float xformOp:rotateZ = 326.25
            float xformOp:rotateY = 9.833563964
            uniform token[] xformOpOrder = ["xformOp:translate", "xformOp:rotateZ", "xformOp:rotateY", "xformOp:scale"]
        }
        def Cube "Wall_30" (
            prepend apiSchemas = ["PhysicsCollisionAPI"]
        )
        {
            token visibility = "invisible"
            uniform token purpose = "guide"
            bool physics:collisionEnabled = true
            double3 xformOp:translate = (0.030026085, -0.012437212, 0.0375)
            float3 xformOp:scale = (0.00108, 0.00439823, 0.038059164)
            float xformOp:rotateZ = 337.5
            float xformOp:rotateY = 9.833563964
            uniform token[] xformOpOrder = ["xformOp:translate", "xformOp:rotateZ", "xformOp:rotateY", "xformOp:scale"]
        }
        def Cube "Wall_31" (
            prepend apiSchemas = ["PhysicsCollisionAPI"]
        )
        {
            token visibility = "invisible"
            uniform token purpose = "guide"
            bool physics:collisionEnabled = true
            double3 xformOp:translate = (0.031875522, -0.006340435, 0.0375)
            float3 xformOp:scale = (0.00108, 0.00439823, 0.038059164)
            float xformOp:rotateZ = 348.75
            float xformOp:rotateY = 9.833563964
            uniform token[] xformOpOrder = ["xformOp:translate", "xformOp:rotateZ", "xformOp:rotateY", "xformOp:scale"]
        }
    }
}
